<?xml version="1.0" standalone="no"?>
<!DOCTYPE svg PUBLIC "-//W3C//DTD SVG 20010904//EN"
 "http://www.w3.org/TR/2001/REC-SVG-20010904/DTD/svg10.dtd">
<svg version="1.0" xmlns="http://www.w3.org/2000/svg"
 width="16.000000pt" height="16.000000pt" viewBox="0 0 16.000000 16.000000"
 preserveAspectRatio="xMidYMid meet">
<metadata>
Created by potrace 1.11, written by Peter Selinger 2001-2013
</metadata>
<g transform="translate(0.000000,16.000000) scale(0.000694,-0.000694)"
fill="#000000" stroke="none">
<path d="M4422 15548 c-94 -95 -197 -201 -229 -234 -73 -78 -283 -300 -314
-335 -38 -42 -222 -240 -249 -269 -14 -14 -59 -64 -100 -110 -41 -46 -84 -93
-95 -105 -17 -20 -78 -87 -150 -169 -11 -12 -54 -60 -95 -105 -41 -46 -82 -92
-90 -103 -8 -10 -28 -34 -45 -52 -16 -18 -52 -59 -80 -91 -27 -32 -59 -69 -70
-81 -11 -12 -34 -40 -52 -61 -17 -21 -47 -55 -65 -75 -35 -39 -41 -46 -127
-148 -30 -36 -57 -67 -60 -70 -4 -3 -31 -34 -61 -70 -30 -36 -60 -71 -67 -78
-7 -7 -33 -39 -59 -72 -26 -33 -50 -60 -53 -60 -4 0 -15 -14 -25 -30 -9 -17
-28 -41 -40 -53 -12 -12 -54 -60 -92 -107 -38 -47 -79 -96 -90 -110 -12 -14
-40 -47 -63 -75 -23 -27 -53 -62 -66 -78 -14 -15 -25 -32 -25 -37 0 -6 -3 -10
-7 -10 -5 0 -39 -39 -78 -88 -38 -48 -84 -103 -102 -122 -18 -19 -33 -39 -33
-44 0 -5 -6 -14 -13 -20 -11 -9 -142 -169 -192 -234 -5 -7 -17 -21 -26 -30 -8
-9 -42 -51 -75 -92 -32 -41 -63 -80 -69 -87 -29 -34 -69 -84 -107 -133 -23
-30 -45 -57 -48 -60 -3 -3 -37 -45 -75 -95 -38 -49 -72 -92 -75 -95 -3 -3 -21
-25 -40 -50 -18 -25 -59 -76 -89 -115 -31 -38 -60 -76 -66 -83 -5 -7 -17 -21
-25 -31 -9 -9 -29 -35 -45 -56 -17 -22 -32 -42 -35 -45 -3 -3 -35 -43 -70 -90
-36 -47 -67 -87 -70 -90 -3 -3 -28 -34 -55 -70 -27 -36 -53 -66 -57 -68 -4 -2
-8 -10 -8 -17 0 -7 -3 -15 -8 -17 -4 -2 -30 -32 -57 -68 -28 -36 -52 -67 -55
-70 -3 -3 -27 -34 -55 -70 -27 -36 -53 -69 -57 -75 -5 -5 -27 -35 -50 -65 -24
-30 -45 -57 -48 -60 -3 -3 -32 -41 -65 -84 -33 -43 -68 -89 -77 -101 -18 -22
-17 -24 29 -91 25 -38 49 -71 53 -74 3 -3 19 -26 35 -52 17 -27 33 -48 38 -48
4 0 7 -6 7 -13 0 -8 9 -22 20 -32 11 -10 20 -24 20 -31 0 -7 4 -14 8 -16 8 -3
34 -39 147 -203 71 -103 69 -102 97 -70 12 15 34 39 48 54 14 15 48 54 75 86
28 33 62 72 76 87 22 24 61 69 139 158 11 14 47 54 78 89 31 36 68 78 82 94
14 17 32 37 40 46 30 33 137 157 156 180 10 13 26 31 35 40 9 9 34 36 54 61
43 53 104 124 135 160 12 14 40 47 63 75 23 27 54 63 70 78 15 16 27 31 27 34
0 4 31 40 83 94 9 11 17 24 17 29 0 6 4 10 8 10 5 0 31 28 59 63 28 34 62 74
74 88 13 14 40 45 60 70 20 24 47 56 60 70 24 26 112 129 139 163 8 10 26 30
39 45 13 14 44 50 70 80 47 55 72 84 119 136 15 17 55 62 89 100 157 179 149
171 162 146 12 -22 18 -30 68 -89 13 -15 23 -33 23 -40 0 -7 4 -11 8 -8 5 3
15 -7 23 -22 8 -15 16 -29 19 -32 3 -3 21 -25 40 -50 19 -25 37 -47 40 -50 3
-3 16 -21 30 -40 13 -19 28 -39 32 -45 20 -24 146 -191 176 -233 34 -48 79
-106 97 -126 6 -6 26 -34 45 -61 19 -28 40 -57 47 -65 42 -52 123 -161 123
-166 0 -3 13 -19 30 -37 16 -18 30 -35 30 -38 0 -3 14 -24 30 -45 17 -22 37
-48 46 -59 14 -19 168 -228 199 -270 22 -31 183 -248 197 -267 7 -9 31 -42 53
-73 22 -30 69 -96 105 -144 36 -49 72 -99 80 -111 15 -22 60 -82 83 -110 7 -8
22 -31 34 -50 12 -20 30 -45 40 -57 10 -12 25 -31 33 -43 8 -12 20 -28 25 -34
6 -7 15 -19 20 -28 15 -23 98 -142 107 -153 37 -44 168 -233 168 -242 0 -7 4
-13 9 -13 4 0 21 -19 37 -42 16 -24 53 -75 81 -115 29 -40 53 -76 53 -82 0 -5
4 -11 9 -13 4 -1 83 -109 175 -238 92 -129 173 -243 181 -253 8 -9 15 -21 15
-26 0 -5 3 -11 8 -13 4 -1 36 -46 72 -98 35 -52 68 -99 72 -105 17 -20 113
-157 124 -175 5 -10 18 -29 28 -42 9 -13 52 -75 96 -138 43 -63 82 -119 87
-125 4 -5 22 -30 38 -55 29 -43 34 -51 63 -85 7 -8 10 -15 7 -15 -4 0 4 -13
17 -28 12 -16 39 -54 58 -85 20 -31 41 -54 50 -53 37 5 201 172 361 366 29 36
55 67 58 70 4 3 33 39 66 80 33 41 65 80 70 86 6 6 21 26 35 44 14 18 30 38
35 44 6 6 24 29 40 51 17 22 32 42 35 45 3 3 28 34 55 70 28 36 52 67 55 70 3
3 27 34 55 70 27 36 52 67 55 70 3 3 32 41 64 85 33 44 63 82 68 83 4 2 8 10
8 17 0 7 3 15 8 17 4 2 34 39 67 83 33 44 63 82 68 83 4 2 7 10 7 18 0 8 4 14
9 14 4 0 21 19 36 43 16 23 52 72 82 108 29 36 53 71 53 77 0 6 4 12 9 14 5 2
34 37 65 78 30 41 59 80 64 85 4 6 28 37 52 70 25 33 53 69 63 79 9 11 17 23
17 27 0 4 6 14 13 21 7 7 60 76 117 153 57 77 109 145 115 152 14 17 25 31 60
78 16 22 35 46 42 53 7 7 13 17 13 20 0 4 10 18 23 32 12 14 66 81 119 150 53
69 105 136 117 150 11 14 48 61 83 105 34 44 65 82 68 85 3 3 23 28 45 55 42
53 73 90 90 109 6 6 28 33 50 60 22 28 51 61 64 75 13 14 46 53 75 85 28 33
81 91 119 130 37 38 67 73 67 78 0 4 4 8 9 8 5 0 32 23 60 50 28 28 56 50 61
50 6 0 10 4 10 8 0 11 100 66 100 55 0 -4 14 -24 31 -43 18 -19 50 -60 73 -90
22 -30 46 -60 51 -66 6 -6 19 -23 30 -38 20 -28 68 -93 83 -111 22 -29 286
-384 300 -404 10 -13 25 -32 35 -43 9 -10 17 -21 17 -24 0 -3 13 -22 29 -42
15 -20 56 -75 90 -122 34 -47 68 -92 75 -101 7 -8 21 -30 32 -47 10 -18 22
-32 26 -32 4 0 8 -6 8 -14 0 -8 3 -16 8 -18 4 -1 35 -41 69 -88 34 -47 66 -89
70 -95 4 -5 33 -46 63 -90 30 -44 58 -81 62 -83 4 -2 8 -8 8 -14 0 -6 10 -23
23 -38 12 -16 33 -45 47 -65 14 -19 33 -45 43 -57 9 -11 17 -25 17 -29 0 -4 6
-14 13 -21 25 -26 277 -388 277 -398 0 -5 4 -10 8 -10 7 0 132 -172 167 -229
6 -9 12 -18 15 -21 3 -3 19 -25 35 -50 17 -25 35 -50 40 -57 6 -7 15 -18 21
-25 6 -8 19 -27 30 -43 10 -17 22 -34 27 -40 4 -5 41 -57 82 -115 40 -58 78
-110 84 -117 6 -7 11 -15 11 -17 0 -3 7 -14 14 -23 16 -19 131 -177 156 -213
35 -51 85 -115 92 -118 4 -2 8 -8 8 -14 0 -6 11 -24 25 -42 29 -36 29 -35 75
-101 19 -28 38 -51 42 -53 4 -2 8 -8 8 -13 0 -5 7 -17 15 -26 29 -36 297 -408
302 -420 3 -7 10 -13 17 -13 15 0 179 172 296 310 12 14 41 48 65 75 25 28 54
61 65 75 12 14 41 48 65 75 24 28 54 61 66 75 69 82 119 140 225 265 65 77
121 142 124 145 5 5 94 111 120 144 8 10 20 23 25 30 6 6 77 90 159 186 81 96
160 189 175 206 15 17 42 51 61 74 19 24 46 55 60 69 14 15 41 46 60 71 19 24
44 53 55 65 11 12 38 44 60 70 22 26 45 52 50 59 6 6 51 58 100 116 49 58 99
116 112 130 24 27 43 49 106 125 54 64 115 133 193 220 34 39 72 82 84 97 11
15 38 45 58 66 20 22 55 61 77 87 22 27 47 56 56 64 8 9 44 49 80 90 35 41 75
87 89 101 14 15 59 65 100 111 41 45 105 115 141 154 37 38 93 99 125 134 64
69 284 290 384 385 l62 60 30 -35 c17 -19 42 -50 57 -69 14 -19 28 -37 31 -40
3 -3 21 -25 40 -50 19 -25 38 -46 42 -48 5 -2 8 -10 8 -17 0 -7 4 -15 8 -17 6
-2 119 -141 189 -233 5 -6 22 -26 38 -46 17 -20 41 -51 55 -70 14 -18 54 -69
90 -114 36 -45 76 -97 90 -115 14 -18 30 -38 35 -44 6 -6 23 -29 40 -51 16
-21 36 -47 45 -56 8 -9 22 -25 30 -35 8 -11 42 -53 75 -94 33 -41 63 -79 68
-85 4 -5 17 -22 30 -36 12 -15 34 -42 49 -60 15 -19 71 -88 125 -155 54 -66
109 -135 123 -153 14 -18 30 -38 35 -44 6 -7 30 -37 55 -67 25 -30 53 -64 63
-75 10 -11 37 -45 60 -75 23 -30 49 -62 57 -71 19 -22 19 -22 157 -192 64 -78
119 -144 122 -147 3 -3 33 -39 66 -80 32 -41 62 -77 65 -80 3 -3 45 -54 94
-115 49 -60 106 -130 126 -155 46 -54 193 -234 223 -273 12 -15 31 -38 42 -50
11 -12 32 -38 47 -57 15 -19 38 -48 52 -65 14 -16 29 -35 33 -40 5 -6 22 -26
38 -46 17 -19 45 -54 63 -77 19 -22 43 -51 54 -64 21 -25 33 -39 134 -168 36
-47 71 -88 78 -92 6 -4 7 -8 2 -8 -6 0 -3 -6 5 -12 20 -17 139 -166 139 -174
0 -4 8 -14 18 -23 10 -9 27 -28 39 -44 l21 -27 27 32 c24 30 96 114 120 142 6
6 48 56 95 111 96 112 126 148 155 181 11 13 34 40 52 61 18 21 65 76 105 123
40 47 91 108 113 134 22 27 45 54 52 61 6 6 35 41 64 76 29 35 58 69 64 75 5
7 26 31 45 54 19 23 40 47 45 54 6 6 35 40 65 76 30 36 57 67 60 70 3 3 37 43
75 90 38 47 80 95 92 107 13 12 23 25 23 28 0 3 8 13 18 23 9 10 35 40 57 67
22 26 56 67 75 90 19 22 51 61 70 85 19 24 49 58 65 77 17 18 35 39 40 45 32
40 101 124 105 128 3 3 37 43 75 90 38 47 72 87 75 90 3 3 27 32 55 65 27 33
53 62 57 63 5 2 8 8 8 14 0 6 8 18 18 27 10 9 36 39 57 66 22 28 42 52 45 55
3 3 23 28 45 55 22 28 50 60 62 72 13 12 23 24 23 27 0 5 24 35 55 70 6 6 42
49 80 96 38 47 72 87 75 90 3 3 24 27 45 55 22 27 45 55 50 61 6 6 24 28 40
49 17 21 35 43 40 49 6 6 24 29 40 51 17 21 37 46 45 55 8 9 29 33 45 54 17
21 39 48 50 60 11 13 34 40 50 61 17 22 40 50 53 63 12 14 22 28 22 31 0 3 19
27 43 53 23 25 51 59 62 74 11 15 30 39 43 53 13 14 35 40 50 59 41 53 89 112
135 166 23 27 49 59 57 70 8 12 24 32 36 46 12 14 47 57 78 95 31 39 64 79 74
90 10 11 38 46 62 78 25 31 48 57 52 57 5 0 8 5 8 10 0 6 9 20 20 33 33 36 42
47 126 152 43 55 84 105 89 111 6 6 24 28 40 49 17 22 42 52 57 67 14 16 23
28 20 28 -4 0 -2 4 3 8 8 6 79 89 107 127 16 21 80 101 108 135 78 95 154 188
173 213 12 15 27 33 32 40 6 7 27 33 48 58 l37 46 -41 54 c-55 74 -68 91 -146
195 -37 50 -77 103 -88 118 -11 16 -31 43 -45 60 -14 18 -34 45 -45 61 -11 15
-39 51 -62 81 -24 29 -43 58 -43 64 0 7 -16 -8 -36 -32 -20 -23 -53 -63 -74
-88 -45 -53 -115 -137 -139 -165 -36 -45 -116 -140 -121 -145 -7 -7 -57 -66
-101 -121 -61 -74 -159 -192 -182 -219 -12 -14 -48 -56 -80 -95 -32 -38 -66
-79 -75 -90 -9 -11 -39 -47 -67 -80 -27 -33 -59 -70 -70 -83 -11 -14 -25 -30
-30 -36 -6 -6 -33 -38 -60 -71 -54 -64 -95 -112 -135 -156 -14 -15 -43 -49
-65 -76 -61 -72 -195 -225 -224 -254 -14 -14 -35 -38 -46 -53 -11 -15 -44 -52
-72 -83 -29 -30 -53 -57 -53 -59 0 -3 -17 -22 -37 -43 -21 -21 -60 -64 -88
-95 -27 -32 -75 -85 -106 -118 l-56 -61 -86 114 c-48 63 -90 119 -95 124 -4 6
-21 28 -37 50 -17 22 -32 42 -35 45 -3 3 -25 32 -49 65 -25 33 -47 62 -50 65
-13 11 -71 89 -71 95 0 3 -9 16 -20 28 -21 22 -128 160 -165 212 -11 15 -28
36 -37 47 -10 10 -18 21 -18 24 0 3 -20 31 -45 62 -53 67 -41 52 -140 182 -44
58 -84 110 -90 116 -5 6 -17 21 -25 34 -20 29 -186 250 -205 273 -8 9 -15 21
-15 27 0 5 -8 15 -17 22 -10 7 -34 36 -53 63 -19 28 -38 52 -42 53 -4 2 -8 10
-8 18 0 7 -9 19 -20 26 -11 7 -20 16 -20 21 0 7 -52 79 -70 97 -3 3 -16 21
-30 40 -13 19 -28 40 -32 45 -5 6 -42 55 -83 110 -42 55 -81 107 -88 116 -6 8
-16 22 -22 31 -29 43 -159 213 -167 216 -4 2 -8 10 -8 17 0 7 -3 15 -8 17 -4
2 -32 37 -62 78 -30 41 -58 77 -62 78 -5 2 -8 10 -8 18 0 8 -3 14 -7 14 -5 0
-19 17 -33 38 -14 20 -27 39 -30 42 -3 3 -17 21 -30 40 -13 19 -27 37 -30 40
-3 3 -22 27 -41 55 -38 54 -58 81 -76 100 -7 8 -13 18 -13 24 0 6 -4 11 -8 11
-4 0 -15 12 -24 28 -10 15 -28 41 -42 57 -14 17 -30 35 -36 42 -5 7 -10 14
-10 16 0 3 -70 99 -156 213 -85 115 -162 218 -170 229 -74 101 -187 253 -199
267 -7 9 -22 29 -32 45 -10 15 -22 33 -28 39 -5 7 -19 24 -29 39 -11 14 -27
35 -35 45 -9 11 -26 34 -39 52 -13 18 -69 94 -125 170 -56 75 -110 148 -121
162 -10 14 -24 33 -31 42 -11 15 -14 14 -31 -14 -10 -18 -22 -32 -26 -32 -4 0
-8 -7 -8 -15 0 -8 -4 -15 -10 -15 -5 0 -10 -4 -10 -10 0 -5 -8 -18 -17 -28
-10 -10 -34 -38 -53 -62 -44 -55 -151 -182 -166 -195 -5 -5 -38 -41 -71 -80
-33 -38 -84 -95 -113 -125 -28 -30 -66 -72 -83 -93 -18 -22 -50 -58 -72 -81
-22 -23 -65 -70 -95 -105 -30 -35 -71 -80 -90 -100 -19 -20 -53 -57 -75 -82
-92 -103 -192 -214 -220 -245 -16 -18 -50 -56 -75 -85 -25 -28 -50 -57 -55
-63 -6 -6 -37 -42 -70 -81 -33 -38 -64 -75 -70 -81 -5 -6 -35 -39 -65 -74 -30
-34 -66 -74 -79 -89 -13 -14 -44 -50 -70 -80 -25 -29 -54 -63 -64 -75 -11 -11
-40 -45 -65 -75 -26 -29 -56 -63 -67 -76 -11 -12 -39 -44 -61 -71 -23 -27 -55
-63 -70 -80 -16 -17 -47 -53 -69 -79 -22 -27 -51 -60 -65 -75 -14 -15 -45 -51
-70 -81 -63 -76 -82 -97 -110 -128 -14 -15 -50 -56 -80 -91 -30 -35 -66 -76
-80 -91 -14 -15 -38 -42 -54 -60 -16 -19 -45 -52 -65 -74 -20 -23 -65 -74
-101 -115 -36 -41 -78 -88 -94 -105 -15 -16 -44 -50 -65 -74 -20 -24 -49 -58
-66 -75 -16 -18 -55 -61 -85 -95 -30 -35 -71 -80 -90 -100 -19 -20 -62 -68
-95 -105 -70 -80 -80 -90 -199 -220 -123 -133 -176 -186 -184 -186 -15 0 -161
155 -186 198 -8 14 -30 42 -51 66 -6 6 -22 27 -35 46 -13 19 -27 37 -30 40 -3
3 -27 34 -53 70 -27 36 -54 72 -60 80 -7 8 -26 33 -42 55 -17 22 -33 42 -37
43 -5 2 -8 9 -8 16 0 6 -9 18 -20 26 -11 8 -20 18 -20 22 0 7 -87 125 -113
154 -7 7 -23 29 -37 49 -14 21 -32 45 -40 54 -8 9 -26 32 -40 51 -13 19 -28
40 -32 45 -12 15 -60 80 -83 110 -47 65 -105 141 -119 158 -9 9 -16 20 -16 23
0 4 -14 23 -30 43 -36 42 -39 46 -64 86 -11 17 -25 36 -32 42 -7 7 -49 65 -95
130 -46 65 -88 123 -94 129 -5 6 -16 20 -23 30 -7 11 -54 77 -105 147 -50 71
-96 137 -102 148 -5 10 -13 19 -17 19 -5 0 -8 6 -8 14 0 8 -4 16 -8 18 -5 2
-23 26 -42 53 -18 28 -37 52 -40 55 -4 3 -13 16 -20 29 -7 14 -17 30 -22 35
-5 6 -36 49 -68 96 -33 47 -64 92 -70 100 -6 8 -37 53 -70 100 -32 47 -62 90
-67 95 -4 6 -37 53 -72 105 -36 52 -67 97 -70 100 -3 3 -26 34 -50 70 -25 36
-48 67 -53 68 -4 2 -8 8 -8 13 0 7 -196 297 -247 365 -4 5 -12 17 -18 27 -5 9
-28 42 -51 74 -22 32 -65 94 -95 138 -30 44 -56 82 -59 85 -8 8 -85 124 -89
135 -2 6 -15 24 -28 41 -12 17 -23 36 -23 42 0 19 -17 14 -33 -10 -8 -13 -25
-34 -39 -48 -13 -14 -39 -45 -58 -70 -19 -25 -47 -57 -62 -72 -16 -15 -28 -32
-28 -37 0 -5 -4 -11 -9 -13 -4 -1 -36 -37 -70 -78 -34 -41 -72 -86 -84 -100
-12 -14 -46 -54 -76 -90 -30 -36 -60 -70 -66 -76 -5 -7 -23 -29 -40 -49 -16
-21 -37 -45 -45 -55 -8 -10 -33 -39 -55 -66 -22 -27 -52 -61 -67 -76 -14 -16
-23 -28 -20 -28 4 0 2 -4 -3 -8 -6 -4 -96 -108 -200 -232 -104 -124 -198 -234
-207 -244 -10 -11 -18 -24 -18 -28 0 -5 -4 -6 -10 -3 -5 3 -10 2 -10 -4 0 -8
-64 -86 -169 -206 -14 -17 -51 -59 -81 -95 -50 -60 -88 -103 -132 -151 -10
-10 -18 -21 -18 -24 0 -2 -12 -17 -27 -33 -16 -17 -48 -53 -73 -82 -25 -30
-54 -63 -65 -76 -11 -12 -33 -39 -50 -60 -16 -21 -41 -50 -55 -64 -14 -14 -43
-48 -65 -76 -22 -27 -51 -61 -65 -76 -26 -27 -32 -34 -115 -133 -27 -33 -52
-62 -56 -65 -4 -3 -23 -25 -44 -50 -56 -68 -128 -151 -147 -172 -10 -10 -18
-20 -18 -23 0 -2 -10 -15 -22 -28 -13 -13 -39 -43 -58 -67 -19 -23 -44 -52
-55 -65 -11 -13 -36 -43 -55 -66 -87 -103 -143 -170 -157 -185 -7 -7 -13 -17
-13 -23 0 -6 -5 -11 -10 -11 -6 0 -15 -11 -22 -25 -6 -13 -14 -22 -19 -20 -4
3 -10 -3 -13 -12 -3 -10 -22 -35 -41 -56 -19 -21 -35 -42 -35 -47 0 -4 -3 -10
-7 -12 -9 -3 -127 -145 -183 -218 -19 -25 -37 -47 -40 -50 -3 -3 -21 -25 -40
-50 -19 -25 -38 -46 -42 -48 -4 -2 -8 -10 -8 -17 0 -7 -4 -15 -8 -17 -4 -1
-32 -33 -62 -70 -29 -38 -56 -68 -59 -68 -3 1 -22 24 -41 51 -19 28 -40 56
-45 62 -6 7 -26 34 -45 61 -19 28 -70 97 -113 155 -42 59 -85 117 -95 130 -9
14 -27 37 -39 52 -13 15 -23 32 -23 38 0 6 -4 11 -8 11 -4 0 -15 12 -24 28 -9
15 -26 38 -37 52 -11 14 -70 95 -132 180 -62 85 -115 157 -118 160 -3 3 -20
25 -36 50 -16 25 -32 47 -35 50 -8 8 -63 82 -88 119 -13 18 -30 40 -38 48 -8
8 -14 18 -14 23 0 5 -6 15 -13 22 -7 7 -37 47 -67 88 -30 41 -58 77 -62 78 -5
2 -8 10 -8 18 0 8 -4 14 -8 14 -4 0 -16 15 -27 33 -10 17 -21 34 -25 37 -4 3
-34 43 -68 90 -34 47 -65 90 -69 95 -13 16 -295 403 -327 449 -16 22 -32 43
-36 46 -3 3 -15 20 -25 38 -11 17 -23 32 -27 32 -4 0 -8 7 -8 15 0 8 -3 15 -8
15 -4 0 -18 18 -32 40 -14 22 -28 40 -32 40 -5 0 -8 6 -8 13 0 7 -9 19 -20 27
-11 8 -20 18 -20 22 0 6 -72 108 -108 153 -4 6 -37 51 -72 100 -69 95 -123
170 -143 195 -7 8 -41 56 -77 105 -35 50 -69 95 -75 102 -5 6 -21 28 -35 48
-14 20 -35 49 -47 65 -13 15 -23 33 -23 39 0 6 -4 11 -9 11 -5 0 -18 15 -29
33 -11 17 -70 100 -131 182 -61 83 -118 161 -128 174 -10 13 -22 29 -28 36 -5
6 -14 18 -20 27 -5 9 -69 98 -142 198 l-131 180 -170 -172z"/>
<path d="M10922 15559 c2 -6 8 -10 13 -10 5 0 11 4 13 10 2 6 -4 11 -13 11 -9
0 -15 -5 -13 -11z"/>
</g>
</svg>
