<?xml version="1.0" encoding="utf-8"?>
<!DOCTYPE svg PUBLIC "-//W3C//DTD SVG 1.1//EN" "http://www.w3.org/Graphics/SVG/1.1/DTD/svg11.dtd">
<svg version="1.1" id="Layer_1" xmlns="http://www.w3.org/2000/svg" xmlns:xlink="http://www.w3.org/1999/xlink" x="0px" y="0px"
	 width="36.2px" height="13.2px" viewBox="0 0 36.2 13.2" enable-background="new 0 0 36.2 13.2" xml:space="preserve">
<g>
	<path d="M14.125,3.875C15.008,2.858,16.033,1.65,17.2,0.25c-0.1-0.066-0.059,0.034,0.125,0.3c0.183,0.268,0.441,0.643,0.775,1.125
		c0.333,0.484,0.7,1.009,1.1,1.575c0.4,0.567,0.783,1.092,1.15,1.575c0.367,0.483,0.675,0.892,0.925,1.225
		c0.25,0.334,0.391,0.484,0.425,0.45c0.133-0.133,0.475-0.508,1.025-1.125c0.55-0.616,1.133-1.283,1.75-2
		c0.617-0.716,1.2-1.375,1.75-1.975c0.55-0.6,0.875-0.983,0.975-1.15c0.767,1.034,1.583,2.134,2.45,3.3c0.866,1.167,1.8,2.4,2.8,3.7
		c0.667-0.733,1.241-1.392,1.725-1.975c0.483-0.583,0.908-1.091,1.275-1.525l0.75,1c-0.967,1.2-2.025,2.5-3.175,3.9
		c-1.15,1.4-2.425,2.917-3.825,4.55c-0.333-0.433-0.75-0.95-1.25-1.55c-0.434-0.533-0.958-1.175-1.575-1.925
		C25.758,8.975,25.033,8.067,24.2,7c-0.333,0.3-0.775,0.759-1.325,1.375c-0.55,0.617-1.1,1.25-1.65,1.9
		c-0.55,0.65-1.059,1.25-1.525,1.8c-0.467,0.55-0.8,0.925-1,1.125c-0.9-1.233-1.617-2.233-2.15-3
		c-0.534-0.767-1.042-1.475-1.525-2.125C14.542,7.425,14.267,7.067,14.2,7c-0.267,0.067-1.117,1.067-2.55,3
		c-1.467,1.967-2.284,2.967-2.45,3c-0.8-1.167-1.634-2.35-2.5-3.55c-0.867-1.2-1.784-2.433-2.75-3.7
		c-0.333,0.367-0.767,0.867-1.3,1.5C2.117,7.884,1.467,8.634,0.7,9.5L0,8.5c1.4-1.833,2.7-3.458,3.9-4.875C5.1,2.208,6.2,1,7.2,0
		l4.75,6.5C12.517,5.767,13.242,4.892,14.125,3.875z"/>
</g>
</svg>
