<?xml version="1.0" encoding="utf-8"?>
<!DOCTYPE svg PUBLIC "-//W3C//DTD SVG 1.1//EN" "http://www.w3.org/Graphics/SVG/1.1/DTD/svg11.dtd">
<svg version="1.1" xmlns="http://www.w3.org/2000/svg" xmlns:xlink="http://www.w3.org/1999/xlink" x="0px" y="0px"
	 width="845.287px" height="818.515px" viewBox="0 0 845.287 818.515" enable-background="new 0 0 845.287 818.515"
	 xml:space="preserve">
<g id="smoke">
	<path opacity="0.4" fill-rule="evenodd" clip-rule="evenodd" fill="#6D6E71" d="M335.562,129.008
		c32.859-19.183,62.58-97.283,60.312-30.959c29.732-59.676,51.732-109.676,78.732-95.676s-25.137,40.779,2,47
		c8.787,2.014,22.426-43.175,55-29c24.51,10.666-27.312,56.577-1,69c46.719,22.058,15-71,88-41c19.927,8.189,66.962,34.264,95,59
		c18.727,16.522,108,45,59,79s4-81,62-37S690.724,284.747,791.665,294.06c-38.059,57.313,3.018-3.251,15.979,60.531
		s17.999,5.064,20.962,19.782c18.414,91.49,15.956,206-1,206c3.296-101.312-42.039-103.912-44.158-73.01
		c-3.832,55.904-4.747,128.396-30.151,155.358c-29.884,31.715-94.559,51.928-103.956,54.912
		c-8.602,2.731-14.765,10.174-14.603,17.21c0.225,9.754,10.74,39.834,21.143,47.032c4.448,3.078,22.502,23.559-1.846,11.38
		c-32.454-16.233-56.797-64.701-50.241-69.017c9.275-6.106,77.996-32.434,103.065-68.937
		c28.403-41.356,54.619-94.002,42.964-144.719c-12.441-54.143,9.347-73.485,5.216-82.229
		c-4.131-8.744-53.187-203.555-85.879-178.018c-31.853,24.881,11.933,46.055,9.908,40.506c1.784,5.366-53.699,2.359-50.241-42.419
		c1.582-20.486,3.034-35.742,30.388-50.601c-23.979,7.074-50.447,20.497-50.901,47.646c-0.439,26.301-64.859-65.251-4.632-83.935
		c60.207-18.677-19.521,64.538-43.35,50.209s-17.507-46.333-44.678-41.375c-27.172,4.958,7.951,24.925,12.864,13.212
		c-4.918,13.302-20.233,30.436-44.505,10.604c-24.271-19.832-51.434-10.947-77.187-7.823c-48.791,5.918-83.112,19.107-36.258,10.929
		c50.898-8.883,90.164,62.969,52.409,101.546c-19.462,19.886-19.932,1.537-7.908-4.798c6.77-4.433,7.878-24.18,4.483-25.427
		c-12.587-4.627-27.715,59.196-28.364,64.998c-1.351,12.071-7.562,4.941-8.14-2.652c-0.578-7.593,2.787-26.369,6.438-36.913
		c3.651-10.544,0.638-17.42-6.512-4.565c-7.15,12.854-6.808,27.397-8.854,37.883c-2.046,10.485-10.762,13.151-9.213-1.981
		c1.55-15.132,3.841-27.415,6.67-37.276s-1.201-11.448-6.059-2.884s-8.355,28.09-8.776,37.018
		c-0.421,8.927-8.168,11.994-8.528-0.663c-1.082-37.993,14.967-62.407,32.679-85.64s-76.02-8.176-94.37,5.536
		c-18.35,13.711-40.703,74.663-147.769,77.187c108.85-1.7,115.505-18.59,122.961-28.494c-3.345,10.023-53.347,47.471-76.544,90.209
		c-22.883,42.159-22.264,102.938-11.3,142.553c10.963,39.616,32,92.433,8.345,107.264c-23.655,14.83,38.604,104.041,88.487,131.079
		s74.01,38.284,106.567,42.244c32.557,3.961,77.013,6.433,77.013,6.433s16.216,3.255,9.91,5.215
		c-44.263,13.759-242.311-15.513-296.518-74.772c-15.408-16.846,9.848-20.426,13.517-12.623
		c-13.575-3.864-9.257,11.419,5.048,16.349c36.4,12.544,21.983-13.692,9.014-22.655c-29.407-20.323-108.09-219.067-109.871-139.076
		s57.22,4.991-30.362-44.028c-37.444-35.914-84.079-55.091-31.418-125.98c6.999,65.649,77.294,5.632,80-17
		c4.714-39.435-26.028,1.789-19-37c7.223-39.855,5-66-23-22c3.188-17.03,60-150,8-92s71-27,71,32c9-56,25.818-39.004,84.952-78.579
		 M225.559,197.795c-58.952-78.421,77.319-49.706,110.004-68.787"/>
</g>
</svg>
