<?xml version="1.0" encoding="utf-8"?>
<!DOCTYPE svg PUBLIC "-//W3C//DTD SVG 1.1//EN" "http://www.w3.org/Graphics/SVG/1.1/DTD/svg11.dtd">
<svg version="1.1" xmlns="http://www.w3.org/2000/svg" xmlns:xlink="http://www.w3.org/1999/xlink" x="0px" y="0px"
	 width="845.287px" height="818.515px" viewBox="0 0 845.287 818.515" enable-background="new 0 0 845.287 818.515"
	 xml:space="preserve">
   <g id="guy">
   	<path display="inline" opacity="0.7" fill-rule="evenodd" clip-rule="evenodd" d="M214.223,398.135
   		c0-17.53,11.348-19.977,19.976-19.977s27.431,8.646,40.691,40.692c13.261,32.045-20.452,122.381,51.974,195.134
   		c72.427,72.753,222.605,81.128,267.24,8.623c45.598-74.067,57.618-174.174,20.745-188.59c-35.975-14.066-58.51-3.622-66.031,2.774
   		s-16.171,1.467-9.618-6.289c6.553-7.756,25.94-13.919,37.918-14.427c11.977-0.508,8.634-11.695,1.109-10.173
   		c-7.525,1.523-38.315,8.272-44.761,15.167s-15.258-0.476-6.289-8.323c8.97-7.848,36.293-13.319,45.316-14.242
   		c9.022-0.923,10.309-11.695-1.48-11.098s-35.913,7.416-46.98,13.872c-11.067,6.456-17.044-2.018-8.138-8.878
   		c8.906-6.861,58.802-26.434,86.746-12.022c27.945,14.411,14.272-11.757,4.255-11.468c-10.019,0.29-22.724-13.422-7.583-11.652
   		c15.139,1.77,75.836,25.974,70.285,120.224c-5.354,90.877-74.617,287.393-324.304,171.172
   		c-50.143-23.34,90.786,80.602,211.475,39.595c134.817-45.807,87.735-80.346,83.971-91.058
   		c-4.221-12.016,22.604-0.169,25.895,23.627c5.424,39.219,13.999,30.613-7.395,39.303c-14.947,6.071-24.989,16.096-101.355,41.356
   		c-93.707,30.998-189.475-8.082-229.91-19.242c-22.217-6.132-14.789,1.955-6.844,6.659c49.386,29.237,142.289,46.034,213.261,34.957
   		c75.607-11.801-86.967,45.75-94.458,55.563c-7.617,9.978,2.27,32.078,20.843,31.738c14.581-0.266-13.819,13.438-30.74-3.206
   		c-26.427-25.997-42.06-22.748-4.338-43.742c16.124-8.974,85.594-27.687,85.019-27.591c-60.15,10.021-161.621,2.938-229.428-36.752
   		c-129.927-76.052-59.762-125.159-60.592-161.712C219.866,501.598,214.223,415.665,214.223,398.135z"/>
   	<circle display="inline" fill-rule="evenodd" clip-rule="evenodd" fill="#FFFFFF" cx="234.107" cy="425.041" r="4"/>
   	<circle display="inline" fill-rule="evenodd" clip-rule="evenodd" fill="#FFFFFF" cx="262.773" cy="422.374" r="4"/>
   </g>
</svg>
